<?xml version="1.0" standalone="no"?>
<!DOCTYPE svg PUBLIC "-//W3C//DTD SVG 20010904//EN"
 "http://www.w3.org/TR/2001/REC-SVG-20010904/DTD/svg10.dtd">
<svg version="1.0" xmlns="http://www.w3.org/2000/svg"
 width="150.000000pt" height="150.000000pt" viewBox="0 0 150.000000 150.000000"
 preserveAspectRatio="xMidYMid meet">
<metadata>
Created by potrace 1.11, written by Peter Selinger 2001-2013
</metadata>
<g transform="translate(0.000000,150.000000) scale(0.100000,-0.100000)"
fill="#000000" stroke="none">
<path d="M0 1201 c0 -230 3 -301 12 -305 10 -5 10 -7 1 -12 -8 -3 -13 -26 -13
-59 0 -44 3 -55 19 -60 11 -3 24 -12 31 -20 9 -11 7 -12 -9 -8 -16 4 -21 1
-21 -13 0 -16 -2 -17 -10 -4 -6 10 -9 -51 -9 -180 0 -149 3 -188 11 -165 6 17
17 37 24 46 8 8 17 29 20 47 5 23 14 34 36 41 35 12 48 7 48 -18 0 -9 7 -26
15 -37 11 -15 17 -16 23 -6 5 7 16 10 27 6 13 -5 16 -3 13 7 -3 8 -15 14 -27
13 -34 -1 -24 21 17 36 20 8 40 16 44 18 5 2 8 -4 8 -13 0 -12 -5 -15 -16 -11
-13 5 -15 2 -9 -21 4 -16 8 -33 8 -40 0 -7 4 -10 9 -7 5 3 7 17 6 32 -2 17 2
27 10 27 7 0 22 11 33 25 20 24 21 24 16 3 -3 -13 -1 -26 4 -29 5 -3 9 -16 9
-30 0 -17 6 -24 19 -24 12 0 22 -9 26 -22 4 -13 20 -66 37 -118 26 -82 30
-109 29 -197 l-1 -103 128 1 127 0 49 60 c53 66 95 89 161 89 34 0 48 5 63 25
22 28 62 165 62 212 0 27 -4 32 -32 38 -48 9 -177 51 -229 73 -78 34 -113 79
-150 192 -40 123 -34 190 16 190 27 0 32 -9 13 -28 -8 -8 -5 -14 16 -22 40
-15 46 -13 46 15 0 14 6 25 13 25 7 1 4 7 -7 15 -26 20 -96 29 -128 16 l-28
-11 0 50 c0 48 1 49 33 52 48 5 43 32 -8 36 -22 2 -43 9 -47 15 -13 20 -9 106
6 142 19 44 40 45 89 4 49 -41 119 -67 201 -75 41 -4 67 -12 70 -20 7 -18 36
-17 60 1 37 28 193 10 204 -23 2 -8 -14 -12 -53 -12 -75 0 -112 -20 -137 -77
-24 -55 -18 -66 11 -20 25 41 56 59 46 27 -5 -15 -2 -20 13 -20 11 0 22 -6 25
-12 3 -10 7 -10 20 0 13 11 14 17 4 33 -6 10 -21 19 -32 20 -13 1 -9 4 13 12
23 7 39 7 58 -1 22 -11 28 -9 48 15 l23 26 36 -47 c42 -56 52 -91 38 -142 -6
-21 -9 -40 -7 -42 10 -10 47 62 52 102 6 39 9 44 21 34 26 -21 52 27 37 66 -9
23 -21 20 -37 -11 l-14 -26 -7 35 c-8 43 7 88 29 88 20 0 57 -19 67 -34 20
-29 7 -74 -34 -120 -40 -46 -41 -50 -39 -109 3 -109 -34 -206 -112 -296 -27
-31 -29 -39 -24 -84 4 -27 9 -52 12 -55 3 -3 16 0 30 6 57 26 129 9 170 -40
35 -41 47 -70 60 -147 11 -66 13 15 14 592 l1 667 -750 0 -750 0 0 -299z m320
174 c0 -8 -7 -15 -15 -15 -8 0 -15 7 -15 15 0 8 7 15 15 15 8 0 15 -7 15 -15z
m-199 -507 c32 -35 40 -61 11 -35 -10 10 -24 17 -31 17 -28 0 15 -107 47 -118
8 -2 12 8 12 30 l1 33 24 -47 c25 -49 58 -149 51 -155 -2 -2 -25 20 -50 49
-77 87 -136 224 -109 251 10 11 12 9 44 -25z m259 -105 c0 -10 -4 -24 -9 -31
-6 -11 -9 -10 -13 5 -3 10 -3 24 -1 31 7 18 23 15 23 -5z m100 -73 c-12 -16
-26 -30 -32 -30 -6 0 -6 6 2 15 10 12 9 15 -6 15 -18 1 -18 1 0 15 11 8 28 15
39 15 17 0 17 -2 -3 -30z m-301 -73 c19 -21 31 -40 28 -44 -8 -7 -86 33 -114
60 -16 14 -20 24 -13 32 6 7 7 21 3 31 -8 23 43 -19 96 -79z m162 61 c-15 -26
-39 -43 -48 -34 -10 10 27 62 44 62 19 0 19 -2 4 -28z m63 -13 c-4 -9 0 -15 7
-15 8 -1 -2 -9 -21 -19 -19 -11 -38 -17 -42 -14 -5 2 -8 0 -8 -5 0 -6 -7 -12
-14 -15 -28 -11 -5 22 37 53 47 35 48 35 41 15z m-184 -120 c0 -8 -4 -15 -10
-15 -5 0 -10 7 -10 15 0 8 5 15 10 15 6 0 10 -7 10 -15z m60 5 c0 -5 -12 -10
-26 -10 -14 0 -23 4 -19 10 3 6 15 10 26 10 10 0 19 -4 19 -10z"/>
<path d="M1072 679 c-18 -24 -48 -55 -67 -68 -39 -27 -128 -41 -139 -22 -4 6
-19 11 -34 11 -25 -1 -23 -3 18 -25 46 -25 80 -32 80 -16 0 5 12 11 28 14 43
9 119 63 137 97 26 51 11 57 -23 9z"/>
<path d="M94 216 c-15 -12 -14 -15 15 -35 20 -14 42 -21 62 -19 l31 3 -45 32
c-38 27 -48 29 -63 19z"/>
<path d="M0 71 l0 -71 151 0 c134 0 150 2 139 15 -15 19 -113 65 -195 93 -33
11 -68 24 -77 27 -16 6 -18 0 -18 -64z"/>
</g>
</svg>
